<svg width="16" height="16" viewBox="0 0 16 16" fill="none" xmlns="http://www.w3.org/2000/svg">
<g id="line-md:heart-filled">
<path id="Vector" d="M8 5.33301C8 5.33301 8 5.33301 8.50667 4.66634C9.09333 3.89301 9.96 3.33301 11 3.33301C12.66 3.33301 14 4.67301 14 6.33301C14 6.95301 13.8133 7.52634 13.4933 7.99967C12.9533 8.80634 8 13.9997 8 13.9997C8 13.9997 3.04667 8.80634 2.50667 7.99967C2.18667 7.52634 2 6.95301 2 6.33301C2 4.67301 3.34 3.33301 5 3.33301C6.04 3.33301 6.91333 3.89301 7.49333 4.66634C8 5.33301 8 5.33301 8 5.33301Z" fill="#5C5C5C"/>
<path id="Vector_2" d="M8 5.33301C8 5.33301 8 5.33301 7.49333 4.66634C6.90667 3.89301 6.04 3.33301 5 3.33301C3.34 3.33301 2 4.67301 2 6.33301C2 6.95301 2.18667 7.52634 2.50667 7.99967C3.04667 8.80634 8 13.9997 8 13.9997M8 5.33301C8 5.33301 8 5.33301 8.50667 4.66634C9.09333 3.89301 9.96 3.33301 11 3.33301C12.66 3.33301 14 4.67301 14 6.33301C14 6.95301 13.8133 7.52634 13.4933 7.99967C12.9533 8.80634 8 13.9997 8 13.9997" stroke="#5C5C5C" stroke-width="2" stroke-linecap="round" stroke-linejoin="round"/>
</g>
</svg>
