<svg width="16" height="16" viewBox="0 0 16 16" fill="none" xmlns="http://www.w3.org/2000/svg">
<g id="fi_9331544">
<path id="Vector" d="M10.49 10.7002C10.4908 10.1435 10.7123 9.60983 11.106 9.21617C11.4996 8.82251 12.0333 8.60101 12.59 8.60023H14.19V7.73023C14.1775 6.84273 13.4175 6.30773 12.57 6.40023V4.49023C12.5698 4.42399 12.5434 4.36052 12.4966 4.31368C12.4497 4.26684 12.3863 4.24043 12.32 4.24023H10.67C10.6696 4.40742 10.6588 4.57441 10.6375 4.74023H12.07V6.40023C10.6903 6.40026 5.32439 6.40021 3.84752 6.40023H2.60002C2.38158 6.39766 2.17296 6.30908 2.01941 6.15371C1.86585 5.99833 1.77973 5.78869 1.77973 5.57023C1.77973 5.35178 1.86585 5.14214 2.01941 4.98676C2.17296 4.83138 2.38158 4.74281 2.60002 4.74023H3.20252C3.18105 4.57443 3.17019 4.40742 3.17002 4.24023H2.60002C2.24749 4.24092 1.9096 4.38127 1.66033 4.63055C1.41106 4.87982 1.27071 5.21771 1.27002 5.57023V13.6702C1.27071 14.0228 1.41106 14.3607 1.66033 14.6099C1.9096 14.8592 2.24749 14.9995 2.60002 15.0002H12.86C13.2125 14.9995 13.5504 14.8592 13.7997 14.6099C14.049 14.3606 14.1893 14.0228 14.19 13.6702V12.8002H12.59C12.0333 12.7995 11.4996 12.578 11.106 12.1843C10.7123 11.7906 10.4908 11.2569 10.49 10.7002ZM5.02002 13.5002H3.02002C2.95433 13.4993 2.89164 13.4726 2.84552 13.4258C2.79939 13.379 2.77353 13.3159 2.77353 13.2502C2.77353 13.1845 2.79939 13.1215 2.84552 13.0747C2.89164 13.0279 2.95433 13.0012 3.02002 13.0002H5.02002C5.08573 13.0011 5.14844 13.0279 5.19458 13.0747C5.24073 13.1215 5.2666 13.1845 5.2666 13.2502C5.2666 13.3159 5.24073 13.379 5.19458 13.4258C5.14844 13.4726 5.08573 13.4993 5.02002 13.5002Z" fill="#5C5C5C"/>
<path id="Vector_2" d="M14.23 9.10059H12.59C10.4725 9.17559 10.4725 12.2256 12.59 12.3006H14.23C14.3624 12.3002 14.4894 12.2474 14.5831 12.1537C14.6768 12.06 14.7296 11.9331 14.73 11.8006V9.60059C14.7296 9.4681 14.6768 9.34114 14.5831 9.24746C14.4894 9.15378 14.3624 9.10097 14.23 9.10059ZM12.59 10.9506C12.5244 10.9494 12.462 10.9226 12.416 10.8758C12.3701 10.829 12.3444 10.7661 12.3444 10.7006C12.3444 10.635 12.3701 10.5721 12.416 10.5254C12.462 10.4786 12.5244 10.4518 12.59 10.4506C12.6555 10.4517 12.718 10.4785 12.764 10.5253C12.81 10.5721 12.8357 10.635 12.8357 10.7006C12.8357 10.7662 12.81 10.8291 12.764 10.8759C12.718 10.9226 12.6555 10.9495 12.59 10.9506Z" fill="#5C5C5C"/>
<path id="Vector_3" d="M4.11748 5.90025H6.66998V5.62525H6.16998C6.10367 5.62525 6.04008 5.59891 5.9932 5.55203C5.94632 5.50514 5.91998 5.44156 5.91998 5.37525C5.91998 5.30895 5.94632 5.24536 5.9932 5.19847C6.04008 5.15159 6.10367 5.12525 6.16998 5.12525H7.10748C7.19036 5.12525 7.26984 5.09233 7.32845 5.03372C7.38705 4.97512 7.41998 4.89563 7.41998 4.81275C7.41998 4.72987 7.38705 4.65039 7.32845 4.59178C7.26984 4.53318 7.19036 4.50025 7.10748 4.50025H6.73248C6.52412 4.4986 6.32441 4.41674 6.17483 4.27169C6.02526 4.12663 5.93731 3.92952 5.92927 3.72132C5.92123 3.51311 5.99371 3.30981 6.13165 3.15365C6.26959 2.99749 6.46239 2.90047 6.67 2.88275L6.66998 2.71025C6.66998 2.64395 6.69632 2.58036 6.7432 2.53347C6.79008 2.48659 6.85367 2.46025 6.91998 2.46025C6.98628 2.46025 7.04987 2.48659 7.09675 2.53347C7.14364 2.58036 7.16998 2.64395 7.16998 2.71025V2.87525H7.66998C7.73628 2.87525 7.79987 2.90159 7.84675 2.94847C7.89364 2.99536 7.91998 3.05895 7.91998 3.12525C7.91998 3.19156 7.89364 3.25514 7.84675 3.30203C7.79987 3.34891 7.73628 3.37525 7.66998 3.37525H6.73248C6.65038 3.37644 6.57204 3.40988 6.5144 3.46836C6.45677 3.52684 6.42446 3.60565 6.42446 3.68776C6.42446 3.76987 6.45677 3.84868 6.51442 3.90715C6.57206 3.96563 6.65039 3.99907 6.73249 4.00025H7.10748C7.31587 4.00185 7.51563 4.08368 7.66525 4.22874C7.81487 4.3738 7.90284 4.57094 7.91089 4.77918C7.91893 4.98742 7.84643 5.19075 7.70844 5.34692C7.57045 5.50309 7.3776 5.60009 7.16995 5.61775L7.16998 5.90025H9.71998C9.93328 5.54398 10.0735 5.14879 10.1325 4.73775C10.2012 4.27532 10.1696 3.80351 10.0399 3.35437C9.91015 2.90522 9.68527 2.48925 9.38053 2.13471C9.07579 1.78017 8.69832 1.49536 8.27376 1.29961C7.8492 1.10387 7.38749 1.00178 6.91998 1.00028C4.44028 0.967894 2.83662 3.78738 4.11748 5.90025Z" fill="#5C5C5C"/>
</g>
</svg>
