<svg width="20" height="17" viewBox="0 0 20 17" fill="none" xmlns="http://www.w3.org/2000/svg">
<g id="Group 21801">
<path id="Vector" d="M1.72499 1.94266C1.52889 1.94266 1.34082 2.02056 1.20216 2.15922C1.0635 2.29788 0.985596 2.48595 0.985596 2.68205C0.985596 2.87815 1.0635 3.06621 1.20216 3.20488C1.34082 3.34354 1.52889 3.42144 1.72499 3.42144H3.36643L5.30659 11.185C5.47148 11.8431 6.06077 12.2941 6.7388 12.2941H15.959C16.6267 12.2941 17.1938 11.8505 17.369 11.2072L19.2855 4.16083H17.7372L15.9583 10.8153H6.73806L4.79863 3.05174C4.71852 2.73324 4.53384 2.45083 4.27417 2.24974C4.0145 2.04865 3.69486 1.94052 3.36643 1.94266H1.72499ZM15.034 12.2941C13.8177 12.2941 12.8158 13.296 12.8158 14.5123C12.8158 15.7286 13.8177 16.7305 15.034 16.7305C16.2503 16.7305 17.2522 15.7286 17.2522 14.5123C17.2522 13.296 16.2503 12.2941 15.034 12.2941ZM8.3795 12.2941C7.16321 12.2941 6.16133 13.296 6.16133 14.5123C6.16133 15.7286 7.16321 16.7305 8.3795 16.7305C9.5958 16.7305 10.5977 15.7286 10.5977 14.5123C10.5977 13.296 9.5958 12.2941 8.3795 12.2941ZM8.3795 13.7729C8.79652 13.7729 9.11889 14.0953 9.11889 14.5123C9.11889 14.9293 8.79652 15.2517 8.3795 15.2517C7.96249 15.2517 7.64011 14.9293 7.64011 14.5123C7.64011 14.0953 7.96249 13.7729 8.3795 13.7729ZM15.034 13.7729C15.451 13.7729 15.7734 14.0953 15.7734 14.5123C15.7734 14.9293 15.451 15.2517 15.034 15.2517C14.617 15.2517 14.2946 14.9293 14.2946 14.5123C14.2946 14.0953 14.617 13.7729 15.034 13.7729Z" fill="#ED5A25"/>
<path id="+" d="M12.8361 1.03687V3.62964H15.38V4.88647H12.8361V7.46655H11.4835V4.88647H8.95032V3.62964H11.4835V1.03687H12.8361Z" fill="#ED5A25" stroke="#ED5A25" stroke-width="0.337081"/>
</g>
</svg>
