<svg width="16" height="16" viewBox="0 0 16 16" fill="none" xmlns="http://www.w3.org/2000/svg">
<g id="mdi:heart-outline">
<path id="Vector" d="M8.06659 12.3628L7.99992 12.4294L7.92659 12.3628C4.75992 9.48942 2.66659 7.58943 2.66659 5.66276C2.66659 4.32943 3.66659 3.32943 4.99992 3.32943C6.02659 3.32943 7.02658 3.99609 7.37992 4.90276H8.61992C8.97325 3.99609 9.97325 3.32943 10.9999 3.32943C12.3333 3.32943 13.3333 4.32943 13.3333 5.66276C13.3333 7.58943 11.2399 9.48942 8.06659 12.3628ZM10.9999 1.99609C9.83992 1.99609 8.72658 2.53609 7.99992 3.38276C7.27325 2.53609 6.15992 1.99609 4.99992 1.99609C2.94659 1.99609 1.33325 3.60276 1.33325 5.66276C1.33325 8.17609 3.59992 10.2361 7.03325 13.3494L7.99992 14.2294L8.96658 13.3494C12.3999 10.2361 14.6666 8.17609 14.6666 5.66276C14.6666 3.60276 13.0533 1.99609 10.9999 1.99609Z" fill="#323232"/>
</g>
</svg>
